<?xml version="1.0" standalone="no"?>
<!DOCTYPE svg PUBLIC "-//W3C//DTD SVG 20010904//EN"
 "http://www.w3.org/TR/2001/REC-SVG-20010904/DTD/svg10.dtd">
<svg  version="1.0" xmlns="http://www.w3.org/2000/svg"
 width="100px" height="100px" viewBox="0 0 1280.000000 1236.000000"
 preserveAspectRatio="xMidYMid meet">
<metadata>
Created by potrace 1.16, written by Peter Selinger 2001-2019
</metadata>
<g transform="translate(0.000000,1236.000000) scale(0.100000,-0.100000)"
fill="#000000" stroke="none">
<path fill="#802e17"  d="M5723 9284 c-21 -9 -15 -44 10 -53 25 -9 24 -6 26 -161 l1 -110 33
29 c17 16 52 47 77 70 25 22 48 41 53 41 4 0 7 29 7 64 0 56 2 64 21 69 15 4
20 12 17 29 -3 22 -6 23 -118 25 -63 1 -121 -1 -127 -3z"/>
<path fill="#802e17" d="M6164 9246 c-7 -6 -65 -56 -129 -111 -65 -55 -130 -111 -145 -125
-14 -14 -51 -45 -81 -70 -109 -91 -159 -143 -159 -165 0 -56 49 -35 165 70 33
30 65 59 71 64 6 5 49 42 96 83 146 126 190 163 197 166 4 1 20 -10 36 -26 17
-15 53 -45 80 -67 28 -22 55 -44 61 -50 6 -5 30 -26 54 -45 23 -19 55 -46 71
-60 15 -14 42 -36 60 -50 18 -14 48 -39 68 -57 54 -48 77 -59 96 -43 29 24 16
48 -62 112 -77 62 -126 103 -147 124 -6 6 -49 41 -96 79 -47 38 -89 75 -93 82
-4 7 -14 13 -21 13 -8 0 -16 6 -19 13 -2 6 -24 26 -48 43 -33 24 -47 29 -55
20z"/>
<path fill="#802e17" d="M6159 9081 c-9 -9 -104 -92 -212 -186 -107 -93 -193 -173 -191 -177
3 -4 52 -8 109 -8 l104 0 3 38 3 37 85 0 85 0 3 -37 c3 -34 6 -38 32 -38 26 0
29 4 32 38 l3 37 90 0 c73 0 90 -3 91 -15 4 -67 -6 -61 106 -58 117 3 132 15
73 59 -19 14 -56 44 -82 66 -78 66 -287 237 -303 249 -11 8 -19 7 -31 -5z"/>
<path fill="#802e17" d="M6075 8694 c-16 -2 -65 -9 -108 -15 -121 -16 -378 -91 -363 -106 2
-3 31 5 63 16 215 76 508 86 758 26 67 -17 165 -49 210 -70 118 -55 150 -72
227 -123 49 -31 88 -61 88 -65 0 -4 -8 -3 -17 3 -10 6 -36 22 -58 35 -407 253
-938 217 -1303 -86 -156 -129 -251 -260 -337 -464 -37 -88 -75 -288 -75 -390
l1 -40 15 28 c8 15 19 27 24 27 6 0 10 6 10 13 0 6 33 45 74 85 59 60 76 85
90 130 17 53 46 127 66 163 4 8 20 38 35 67 14 28 33 56 41 63 8 6 14 15 14
20 0 29 187 212 275 270 180 118 334 167 555 176 123 5 161 2 253 -16 59 -11
121 -27 137 -36 16 -8 34 -15 40 -15 6 0 42 -16 81 -35 l70 -35 30 33 c25 27
38 33 86 37 l57 5 -79 52 c-168 109 -386 195 -575 228 -94 16 -327 27 -385 19z"/>
<path fill="#802e17" d="M7016 8307 c-13 -18 -13 -30 -4 -60 17 -55 107 -149 173 -181 63 -31
67 -45 34 -113 -25 -51 -46 -67 -135 -99 -53 -20 -84 -24 -175 -24 -61 0 -140
6 -177 14 -220 46 -239 48 -414 48 -229 0 -357 -25 -573 -110 -236 -92 -328
-157 -496 -349 -20 -23 -39 -48 -43 -55 -3 -7 -15 -26 -26 -43 -30 -47 -107
-205 -123 -255 -54 -161 -84 -308 -98 -471 -13 -151 -9 -383 7 -399 20 -20 41
15 59 97 45 208 109 416 169 548 35 75 70 143 92 180 13 22 30 50 36 63 6 12
15 22 20 22 4 0 8 6 8 14 0 20 98 116 119 116 21 0 61 -40 61 -62 0 -8 14 -35
31 -59 35 -49 172 -186 210 -209 46 -28 115 -106 138 -154 31 -67 38 -164 17
-246 -14 -56 -79 -205 -96 -220 -3 -3 -17 -24 -32 -46 -71 -110 -75 -228 -14
-357 19 -40 42 -79 50 -86 9 -8 16 -18 16 -23 0 -12 212 -223 238 -237 14 -8
-2 34 -58 147 -100 202 -123 277 -118 391 5 119 26 162 128 256 83 77 114 108
146 151 16 21 34 44 40 51 21 22 82 159 99 223 22 83 21 144 -5 252 -25 107
-65 197 -114 261 -28 37 -36 56 -34 80 10 105 142 -56 209 -255 13 -37 14 -37
53 -32 43 6 167 45 226 71 55 24 285 135 289 139 3 2 -4 14 -15 27 -50 57 -91
179 -78 235 19 88 42 120 77 106 12 -4 15 -25 14 -108 -2 -124 13 -163 91
-233 68 -62 174 -166 188 -185 26 -34 34 -60 34 -112 0 -50 -4 -59 -45 -107
-25 -29 -43 -54 -41 -56 11 -11 95 14 134 41 54 37 82 85 82 141 0 51 -10 69
-117 233 -35 52 -63 98 -63 103 0 18 20 56 42 79 41 44 88 107 88 119 0 6 5
11 10 11 6 0 10 5 10 11 0 6 8 23 18 37 21 32 53 105 82 188 l22 62 109 7 c76
5 114 11 124 22 29 29 12 75 -34 91 -20 7 -37 25 -51 52 -30 58 -98 90 -197
90 -68 0 -73 1 -93 30 -12 17 -46 48 -75 70 -117 86 -219 114 -249 67z"/>
<path fill="#802e17" d="M7515 7793 c-7 -31 -26 -77 -56 -138 -23 -49 -23 -61 -1 -150 13 -52
30 -86 65 -132 57 -74 91 -169 83 -230 -12 -92 -87 -203 -137 -203 -16 0 -29
-2 -29 -4 0 -2 -18 -54 -40 -116 -41 -115 -112 -260 -157 -319 -7 -9 -29 -40
-51 -69 -66 -88 -206 -227 -286 -281 -12 -8 -23 -18 -26 -21 -3 -4 -12 -10
-20 -13 -8 -4 -33 -18 -55 -32 -108 -66 -223 -114 -372 -156 -53 -14 -83 -28
-83 -37 0 -7 14 -33 30 -57 17 -24 30 -47 30 -52 0 -4 9 -19 20 -33 11 -14 20
-32 20 -41 0 -8 6 -23 13 -34 13 -17 16 -17 88 0 170 41 352 121 510 226 122
82 314 272 397 395 290 429 350 954 164 1432 -35 89 -37 92 -68 92 -26 0 -33
-5 -39 -27z"/>
<path fill="#802e17" d="M4760 7704 c-150 -402 -121 -866 79 -1248 l46 -89 5 104 c5 88 3 108
-12 131 -10 14 -18 32 -18 39 0 7 -6 20 -13 28 -21 24 -82 195 -108 301 -21
85 -24 117 -23 305 0 217 11 293 61 433 9 23 13 45 10 48 -3 3 -15 -20 -27
-52z"/>
<path fill="#802e17" d="M7322 7417 c-12 -13 -22 -29 -22 -36 0 -6 22 -45 49 -85 83 -122 121
-200 121 -247 0 -37 2 -40 16 -28 57 47 74 171 34 249 -25 50 -29 54 -93 120
-54 56 -73 61 -105 27z"/>
<path fill="#802e17" d="M6470 7003 c-40 -14 -50 -35 -50 -100 0 -136 -54 -296 -139 -414 -36
-48 -124 -144 -161 -174 -38 -30 -50 -68 -50 -158 0 -108 18 -162 96 -298 16
-28 74 -88 130 -135 100 -85 114 -96 114 -86 0 16 -30 82 -57 125 -116 183
-145 336 -88 469 7 18 37 58 65 88 129 140 199 326 203 542 1 70 0 128 -3 131
-10 9 -45 15 -60 10z"/>
<path fill="#802e17" d="M5076 6288 c-3 -13 -6 -34 -6 -46 0 -13 -8 -37 -17 -54 l-18 -29 85
-83 c190 -184 406 -311 647 -381 48 -14 88 -23 90 -21 3 2 -24 40 -65 91 -23
29 -80 134 -86 158 -4 17 -13 27 -25 27 -20 0 -136 45 -186 72 -16 9 -47 24
-67 33 -21 10 -38 21 -38 26 0 5 -9 9 -19 9 -11 0 -21 3 -23 8 -1 4 -23 20
-48 37 -25 16 -47 33 -50 36 -11 13 -160 139 -163 139 -3 0 -7 -10 -11 -22z"/>
<path fill="#802e17" d="M6015 5873 c4 -10 10 -27 13 -38 3 -11 12 -31 21 -45 9 -14 32 -55
51 -92 l34 -68 62 0 c102 0 103 4 26 79 -38 36 -84 89 -103 116 -41 61 -46 65
-83 65 -23 0 -27 -3 -21 -17z"/>
<path fill="#0003cad3" d="M3090 5060 l0 -470 135 0 135 0 0 103 0 104 52 74 52 73 35 -74 c20
-41 57 -121 83 -178 l47 -102 155 0 c86 0 156 2 156 5 0 2 -66 137 -146 298
l-146 294 100 144 c54 79 107 156 117 172 l17 27 -128 0 -129 0 -125 -190
c-69 -104 -128 -190 -131 -190 -4 0 -7 80 -8 178 0 97 0 183 -1 190 0 9 -34
12 -135 12 l-135 0 0 -470z"/>
<path fill="#0003cad3" d="M6260 5450 c-44 -11 -95 -66 -109 -117 l-11 -40 -67 10 c-124 18
-281 -19 -346 -81 -43 -41 -57 -75 -57 -139 0 -67 22 -111 69 -139 38 -23 39
-28 2 -44 -64 -26 -107 -100 -94 -162 3 -16 19 -42 34 -58 27 -27 28 -29 10
-35 -11 -3 -34 -22 -51 -42 -30 -33 -32 -41 -28 -91 4 -48 10 -60 41 -88 48
-45 120 -65 262 -72 345 -20 495 48 495 223 0 63 -17 104 -63 153 -43 45 -100
59 -273 67 -152 8 -184 15 -184 40 0 25 37 35 132 35 107 0 183 18 240 55 93
62 104 211 22 296 l-25 26 31 13 c17 7 50 10 75 8 l45 -6 0 93 0 93 -31 6
c-39 8 -74 6 -119 -4z m-195 -305 c51 -50 18 -155 -49 -155 -69 0 -108 57 -86
125 13 41 33 54 78 55 22 0 41 -8 57 -25z m88 -567 c13 -7 17 -18 15 -41 -4
-46 -53 -61 -175 -54 -111 6 -147 21 -151 62 -6 51 15 57 163 49 72 -3 138
-11 148 -16z"/>
<path fill="#0003cad3" d="M4247 5300 c-113 -18 -198 -74 -237 -156 -11 -26 -18 -49 -15 -52 12
-12 240 -29 244 -18 2 5 14 20 27 33 18 18 34 23 78 23 63 0 86 -16 86 -61 0
-27 -3 -29 -39 -29 -59 0 -204 -28 -265 -50 -63 -24 -127 -87 -146 -145 -31
-94 14 -199 105 -245 41 -20 65 -25 130 -25 91 0 156 25 199 76 14 16 27 29
30 29 3 0 6 -20 6 -45 l0 -45 136 0 c106 0 133 3 127 13 -4 6 -10 129 -13 272
-5 225 -8 265 -24 298 -40 82 -128 123 -286 131 -47 3 -111 1 -143 -4z m181
-440 c-3 -49 -10 -66 -30 -87 -36 -35 -102 -38 -129 -4 -26 32 -24 55 9 92 24
27 88 53 146 58 4 1 6 -26 4 -59z"/>
<path fill="#0003cad3" d="M5225 5296 c-34 -10 -61 -26 -87 -55 l-38 -40 0 44 0 45 -130 0 -130
0 0 -350 0 -350 140 0 140 0 0 240 0 241 25 24 c24 25 59 32 82 17 27 -17 33
-70 33 -293 l0 -229 136 0 135 0 -3 293 -3 294 -27 40 c-48 73 -168 108 -273
79z"/>
<path fill="#0003cad3" d="M6737 5299 c-114 -17 -205 -77 -243 -161 -23 -51 -18 -54 100 -62 50
-4 101 -10 114 -13 15 -4 22 -1 22 10 0 30 49 57 105 57 59 0 85 -19 85 -63 0
-25 -3 -27 -39 -27 -59 0 -204 -28 -264 -50 -61 -23 -123 -77 -143 -126 -20
-48 -18 -128 6 -173 41 -81 111 -116 230 -115 64 0 83 4 129 29 29 16 60 40
69 53 18 28 32 14 32 -35 l0 -33 131 0 131 0 -7 23 c-4 12 -10 139 -14 283
l-6 261 -27 40 c-58 88 -225 129 -411 102z m183 -426 c0 -62 -17 -94 -60 -116
-61 -31 -120 -5 -120 52 1 57 59 93 173 110 4 1 7 -20 7 -46z"/>
<path fill="#0003cad3" d="M7677 5296 c-48 -18 -73 -40 -101 -91 l-21 -40 -3 63 -3 62 -109 0
-110 0 0 -350 0 -350 130 0 130 0 0 185 c0 204 7 240 55 271 18 11 47 18 82
18 l54 1 -3 120 -3 120 -30 2 c-16 2 -47 -4 -68 -11z"/>
<path fill="#0003cad3" d="M8137 5300 c-112 -20 -223 -106 -270 -208 -18 -39 -22 -65 -22 -152
0 -94 3 -111 27 -160 75 -152 233 -230 413 -202 139 22 231 86 287 200 30 61
33 74 33 162 0 83 -4 103 -29 158 -36 78 -114 152 -190 181 -63 23 -181 33
-249 21z m128 -176 c8 -4 23 -21 33 -38 21 -39 22 -221 1 -281 -25 -71 -98
-82 -143 -22 -15 21 -21 47 -24 117 -6 118 4 177 33 206 24 24 65 31 100 18z"/>
<path fill="#0003cad3" d="M8970 5296 c-206 -46 -328 -243 -276 -446 41 -160 158 -259 328 -276
218 -22 404 113 426 310 20 168 -44 304 -175 373 -93 50 -196 63 -303 39z
m164 -199 c19 -26 21 -42 21 -156 0 -105 -3 -132 -18 -154 -39 -60 -112 -54
-143 11 -13 28 -17 62 -17 137 1 147 26 198 96 193 30 -2 45 -10 61 -31z"/>
</g>
</svg>
